<?xml version="1.0" standalone="no"?><svg xmlns="http://www.w3.org/2000/svg" viewBox="0 0 1440 320"><path fill="#101828" fill-opacity="1" d="M0,64L7.5,74.7C15,85,30,107,45,138.7C60,171,75,213,90,245.3C105,277,120,299,135,277.3C150,256,165,192,180,160C195,128,210,128,225,138.7C240,149,255,171,270,165.3C285,160,300,128,315,133.3C330,139,345,181,360,176C375,171,390,117,405,112C420,107,435,149,450,181.3C465,213,480,235,495,250.7C510,267,525,277,540,234.7C555,192,570,96,585,64C600,32,615,64,630,74.7C645,85,660,75,675,106.7C690,139,705,213,720,250.7C735,288,750,288,765,266.7C780,245,795,203,810,160C825,117,840,75,855,90.7C870,107,885,181,900,192C915,203,930,149,945,128C960,107,975,117,990,122.7C1005,128,1020,128,1035,117.3C1050,107,1065,85,1080,90.7C1095,96,1110,128,1125,138.7C1140,149,1155,139,1170,149.3C1185,160,1200,192,1215,218.7C1230,245,1245,267,1260,234.7C1275,203,1290,117,1305,74.7C1320,32,1335,32,1350,37.3C1365,43,1380,53,1395,101.3C1410,149,1425,235,1433,277.3L1440,320L1440,0L1432.5,0C1425,0,1410,0,1395,0C1380,0,1365,0,1350,0C1335,0,1320,0,1305,0C1290,0,1275,0,1260,0C1245,0,1230,0,1215,0C1200,0,1185,0,1170,0C1155,0,1140,0,1125,0C1110,0,1095,0,1080,0C1065,0,1050,0,1035,0C1020,0,1005,0,990,0C975,0,960,0,945,0C930,0,915,0,900,0C885,0,870,0,855,0C840,0,825,0,810,0C795,0,780,0,765,0C750,0,735,0,720,0C705,0,690,0,675,0C660,0,645,0,630,0C615,0,600,0,585,0C570,0,555,0,540,0C525,0,510,0,495,0C480,0,465,0,450,0C435,0,420,0,405,0C390,0,375,0,360,0C345,0,330,0,315,0C300,0,285,0,270,0C255,0,240,0,225,0C210,0,195,0,180,0C165,0,150,0,135,0C120,0,105,0,90,0C75,0,60,0,45,0C30,0,15,0,8,0L0,0Z"></path></svg>